<?xml version="1.0" encoding="UTF-8"?>
<svg id="Layer_1" data-name="Layer 1" xmlns="http://www.w3.org/2000/svg" viewBox="0 0 3000 3000.24">
  <path d="M1806.51,1113.25L299.61,152.4l903.59,1241.02-611.88-348.86,376.83,890.52c56.44-432.55,403.26-773.86,838.37-821.83Z"/>
  <path d="M2577.2,1636.15c-61.92-97.14-144.63-179.85-241.85-241.85-122.26-77.95-267.54-123.2-423.29-123.2-435.41,.07-788.33,352.99-788.4,788.4,0,155.75,45.25,301.03,123.2,423.29,62,97.22,144.7,179.92,241.85,241.85,122.26,77.95,267.54,123.2,423.29,123.2,435.48,0,788.4-352.92,788.4-788.4,0-155.75-45.25-301.03-123.2-423.29Zm-340.36,729.36c-2.96,3.25-6.06,6.35-9.24,9.53-3.18,3.18-6.28,6.28-9.53,9.24-79.89,75.28-187.5,121.39-306.01,121.39-246.47,.07-446.24-199.7-446.24-446.24,0-118.51,46.19-226.04,121.46-305.93,2.96-3.25,6.06-6.35,9.24-9.53s6.28-6.28,9.53-9.24c79.89-75.28,187.5-121.54,306.01-121.54,246.47,.07,446.24,199.84,446.24,446.24,0,118.5-46.19,226.19-121.47,306.08Z"/>
</svg>