<?xml version="1.0" encoding="UTF-8"?>
<svg id="Layer_1" data-name="Layer 1" xmlns="http://www.w3.org/2000/svg" viewBox="0 0 3000 585.74">
  <defs>
    <style>
      .cls-1 {
        fill: #fff;
      }
    </style>
  </defs>
  <path class="cls-1" d="M1336.1,363.15c-9.16-11.29-17.56-19.38-25.18-24.27l.46-1.37c19.53-4.27,35.26-14.88,47.16-31.82,11.91-16.94,17.86-37.32,17.86-61.12,0-31.74-8.32-55.78-24.95-72.12-16.64-16.33-43.12-24.5-79.44-24.5h-138.28V437.79h73.26v-92.95h9.62c7.63,0,13.2,.31,16.71,.92,3.51,.62,6.56,2.29,9.16,5.04,2.59,2.75,6.02,7.33,10.3,13.74l49.45,73.26h85.16v-.46c-7.02-11.6-15.04-24.04-24.04-37.32-9.01-13.28-18.09-25.56-27.24-36.86Zm-44.18-87c-5.95,6.11-16.56,9.16-31.82,9.16h-53.11v-77.84h53.11c15.26,0,25.87,3.05,31.82,9.16,5.95,6.11,8.93,16.03,8.93,29.76s-2.97,23.66-8.93,29.76Z"/>
  <path class="cls-1" d="M1674.91,176.8c-10.69-11.6-25.18-19.99-43.5-25.18-18.31-5.19-41.36-7.78-69.14-7.78-36.94,0-65.7,4.74-86.31,14.19-20.61,9.46-35.11,25.03-43.5,46.7-8.4,21.68-12.59,50.98-12.59,87.91,0,27.78,2.29,51.21,6.87,70.28,4.58,19.08,12.21,34.42,22.89,46.02,10.68,11.6,25.18,20,43.5,25.18,18.31,5.19,41.36,7.78,69.14,7.78s50.82-2.59,69.14-7.78c18.31-5.19,32.81-13.58,43.5-25.18,10.68-11.6,18.24-26.94,22.67-46.02,4.42-19.07,6.64-42.5,6.64-70.28s-2.22-50.74-6.64-69.82c-4.43-19.07-11.98-34.41-22.67-46.02Zm-48.99,167.81c-3.36,12.36-9.92,20.99-19.69,25.87-9.77,4.89-24.42,7.33-43.96,7.33s-33.81-2.44-43.73-7.33c-9.92-4.88-16.64-13.51-20.15-25.87-3.51-12.36-5.27-29.68-5.27-51.97s1.75-39.07,5.27-51.28c3.5-12.21,10.22-20.83,20.15-25.87,9.92-5.04,24.5-7.55,43.73-7.55s34.18,2.52,43.96,7.55c9.77,5.04,16.33,13.66,19.69,25.87,3.36,12.21,5.04,29.3,5.04,51.28s-1.68,39.61-5.04,51.97Z"/>
  <path class="cls-1" d="M1873.17,143.83c-24.72,0-45.56,2.06-62.5,6.18-16.94,4.12-30.53,11.45-40.75,21.98-10.23,10.53-17.63,25.41-22.21,44.64-4.58,19.23-6.87,43.81-6.87,73.72s2.29,56.63,6.87,76.46c4.58,19.84,11.98,35.18,22.21,46.02,10.22,10.84,23.81,18.39,40.75,22.66,16.94,4.28,37.78,6.41,62.5,6.41,19.23,0,35.86-.76,49.91-2.29,14.04-1.52,28.39-3.81,43.04-6.87v-57.69l-2.29-1.83c-12.21,3.05-24.35,5.12-36.4,6.18-12.06,1.07-26.64,1.6-43.73,1.6-14.04,0-25.57-1.06-34.57-3.2-9.01-2.13-16.1-6.25-21.29-12.36-5.2-6.1-8.78-15.18-10.76-27.24-1.99-12.06-2.98-28-2.98-47.85s.99-34.03,2.98-45.33c1.98-11.29,5.56-19.84,10.76-25.64,5.19-5.79,12.28-9.69,21.29-11.67,9-1.98,20.53-2.98,34.57-2.98,17.4,0,32.05,.69,43.96,2.06,11.91,1.37,24.27,3.59,37.09,6.64l1.37-.91v-59.52c-14.65-3.36-29-5.72-43.04-7.1-14.04-1.37-30.68-2.06-49.91-2.06Z"/>
  <path class="cls-1" d="M2175.13,326.75c-5.95-7.78-11.75-14.65-17.4-20.6-5.65-5.95-10.61-9.84-14.88-11.68v-1.37c4.27-1.52,9.23-5.57,14.88-12.13,5.65-6.56,11.37-14.19,17.17-22.9,5.8-8.7,10.99-16.86,15.57-24.49l52.2-84.25v-1.37h-79.67l-61.36,99.36c-3.36,4.89-7.1,9.77-11.22,14.65-4.12,4.89-7.71,7.33-10.76,7.33h-1.37v-121.33h-73.26V437.79h73.26v-119.96h2.29c3.05,0,6.64,2.14,10.76,6.41,4.12,4.28,8.08,8.93,11.91,13.97,3.81,5.04,6.64,9.09,8.47,12.13v-.46l57.23,87.91h84.25v-1.37l-60.9-86.54c-5.49-7.63-11.22-15.34-17.17-23.12Z"/>
  <polygon class="cls-1" points="2282.49 437.79 2355.75 437.79 2355.75 333.39 2488.53 333.39 2488.53 273.87 2355.75 273.87 2355.75 207.48 2497.69 207.48 2497.69 147.96 2282.49 147.96 2282.49 437.79"/>
  <rect class="cls-1" x="2532.03" y="147.96" width="73.26" height="289.83"/>
  <path class="cls-1" d="M2847.96,147.96v116.3c0,11.9,.76,23.89,2.29,35.94,1.52,12.06,3.81,24.5,6.87,37.32l-1.37,1.83c-4.58-9.16-8.7-17.09-12.36-23.81-3.66-6.71-7.63-13.51-11.9-20.38-4.28-6.87-9.61-15.03-16.03-24.5l-82.42-122.71h-72.8V437.79h73.26v-111.72c0-11.9-.46-24.19-1.37-36.86-.92-12.66-3.51-26.33-7.78-40.98l1.37-1.83c4.58,9.16,8.7,17.1,12.36,23.81,3.66,6.72,7.62,13.44,11.9,20.15,4.27,6.72,9.61,14.96,16.03,24.73l82.42,122.71h72.8V147.96h-73.26Z"/>
  <path class="cls-1" d="M573.86,124.21L78.78,233.76l430.25,67.69-192.74,52.77,254.25,103.06c-75.45-98.1-74.35-236.15,3.32-333.07Z"/>
  <path class="cls-1" d="M833.37,74.5c-31.91-7.07-65.1-7.07-97.04,0-40.16,8.89-78.39,28.96-109.63,60.2-87.34,87.37-87.34,228.97,0,316.33,31.25,31.25,69.47,51.31,109.63,60.2,31.94,7.07,65.13,7.07,97.04,0,40.16-8.89,78.39-28.96,109.63-60.2,87.37-87.37,87.37-228.97,0-316.33-31.25-31.25-69.47-51.31-109.63-60.2Zm78.04,222.13c-.93,31.13-13.26,61.97-37.04,85.74-49.43,49.46-129.59,49.46-179.05,0-23.77-23.77-36.08-54.61-37.01-85.74-.06-1.25-.06-2.49-.06-3.76s0-2.52,.06-3.76c.93-31.13,13.23-62,37.01-85.77,49.46-49.43,129.61-49.43,179.05,0,23.77,23.77,36.11,54.64,37.04,85.77,.06,1.25,.06,2.49,.06,3.76s0,2.52-.06,3.76Z"/>
</svg>